<?xml version="1.0" encoding="utf-8"?>
<!-- Generator: Adobe Illustrator 24.0.2, SVG Export Plug-In . SVG Version: 6.00 Build 0)  -->
<svg version="1.1" id="Capa_1" xmlns="http://www.w3.org/2000/svg" xmlns:xlink="http://www.w3.org/1999/xlink" x="0px" y="0px"
	 viewBox="0 0 341.8 341.8" style="enable-background:new 0 0 341.8 341.8;" xml:space="preserve">
<style type="text/css">
	.st0{fill:#47B063;}
	.st1{fill:#E98901;}
</style>
<g>
	<g>
		<path class="st0" d="M167.7,3.4c10.6-0.5,21.2,0.6,31.5,3.2c0.6,0.2,1.2,0.3,1.8,0.5c49.9,12.9,85,59.5,82.3,109.9
			c-1.3,24-9.6,46.2-19.7,67.8c-20.3,43.5-46.8,83.4-72.2,123.9c-6.6,10.5-13.3,20.9-20,31.5c-0.9-0.6-1.7-0.8-2-1.3
			c-28.3-46.7-57.1-93.1-84.5-140.4c-13.1-22.5-22.3-46.9-25.7-73.2c-5.4-42,10.8-74.7,43.7-99.8c15.5-11.9,33.3-19,52.8-21.5
			c0.6-0.1,1.9,0,2.9-0.1c1.4-0.1,2.8-0.2,4.3-0.3C164.6,3.6,166.1,3.5,167.7,3.4z M171.4,73.3c-23.1-0.3-42.5,18.5-42.9,41.5
			c-0.4,23.1,18.4,42.6,41.3,43.1c23.4,0.4,43.1-18.6,43.2-41.8C213.3,93,194.4,73.5,171.4,73.3z"/>
	</g>
</g>
<circle class="st1" cx="170.9" cy="115.5" r="68.9"/>
</svg>
